PathFileType	4	(X/Y/Z)	D:\TRACE\spot_10-12-23\spot_body_motion_2_2-platform.trc
DataRate	CameraRate	NumFrames	NumMarkers	Units	OrigDataRate	OrigDataStartFrame	OrigNumFrames
100.00	100.00	      48	5	mm	100.00	4376	      7000
Frame#	Time	Left_Front			Right_Front			Left_Aft			Right_Aft			Post			
		X1	Y1	Z1	X2	Y2	Z2	X3	Y3	Z3	X4	Y4	Z4	X5	Y5	Z5	

4376	43.750	-793.43982	-43.28347	-651.44305	779.05664	-38.19024	-644.72314	-710.81256	38.48977	483.46954	706.62811	49.51965	569.29272	-10.49997	668.79047	-1025.43323	
4377	43.760	-792.26434	-42.27505	-651.41150	779.85492	-37.33754	-644.47937	-709.72461	38.00251	483.51074	707.69379	48.90022	569.64905	-9.64219	670.17706	-1024.24182	
4378	43.770	-791.61090	-41.13321	-651.19830	780.99658	-36.22549	-644.38586	-708.78223	37.49443	483.81232	708.68988	48.19321	569.96985	-8.29560	671.85834	-1023.17773	
4379	43.780	-790.53418	-40.21387	-651.02032	782.25262	-35.35676	-644.03503	-707.56885	36.71286	484.15076	709.73151	47.15889	570.09192	-7.08908	673.40869	-1021.65607	
4380	43.790	-789.29364	-39.18892	-650.91656	783.28088	-34.34610	-644.10443	-706.58124	36.05296	484.33459	710.98242	46.35974	570.26245	-6.31428	675.00696	-1020.41034	
4381	43.800	-788.34143	-38.17259	-650.69000	784.43390	-33.32002	-643.84784	-705.45691	35.50994	484.74579	711.93652	45.58457	570.59357	-5.11947	676.57764	-1018.99908	
4382	43.810	-786.67596	-37.24833	-650.77283	785.60913	-32.16566	-643.44690	-704.26947	34.44862	485.20901	713.04211	44.63554	571.08826	-4.21661	678.41357	-1017.81763	
4383	43.820	-785.96857	-35.90631	-650.33795	786.56805	-30.99567	-643.63580	-703.31244	33.70642	485.26385	714.19250	43.93577	571.36395	-2.86499	680.18982	-1016.06342	
4384	43.830	-784.79205	-34.91169	-649.99939	787.52521	-29.95320	-643.38995	-702.03326	33.03939	485.87991	715.15869	42.94409	571.71356	-1.76683	681.79254	-1014.63647	
4385	43.840	-783.81866	-33.52240	-649.89508	788.81958	-28.63953	-643.14905	-701.14984	32.39504	485.93448	716.41113	41.93157	571.92242	-1.01721	683.46075	-1013.27673	
4386	43.850	-782.77039	-32.21721	-649.84088	789.91638	-27.69000	-642.67206	-699.77863	31.47172	486.53427	717.32916	41.16065	572.14172	0.29482	685.30029	-1011.70227	
4387	43.860	-781.44360	-31.27017	-649.48090	791.06812	-26.39243	-642.72192	-698.81445	30.95576	486.67569	718.73755	40.14019	572.48340	1.62233	687.27612	-1009.94843	
4388	43.870	-780.16870	-30.01022	-649.18671	791.89392	-25.12218	-642.40399	-697.57678	29.99523	486.98013	719.60413	39.19682	572.83636	2.41137	689.29382	-1008.35486	
4389	43.880	-779.25519	-28.60380	-649.00165	793.32397	-23.85189	-642.09973	-696.50281	29.05805	487.30429	720.94904	38.24430	573.19342	3.61146	691.30243	-1006.63306	
4390	43.890	-778.14185	-27.48714	-648.80115	794.33014	-22.43401	-641.96356	-695.24475	28.20949	487.49948	721.65436	37.11461	573.62555	4.92294	693.14899	-1004.70435	
4391	43.900	-776.95721	-26.09453	-648.46570	795.32550	-21.46902	-641.81177	-694.08807	27.41443	488.04416	722.73004	36.13139	574.10736	5.96768	695.04321	-1003.19214	
4392	43.910	-775.49530	-25.00134	-648.22095	796.83209	-19.98011	-641.27557	-692.97247	26.49129	488.57346	723.76001	34.98286	574.37775	6.87149	697.11047	-1001.40076	
4393	43.920	-774.56500	-23.68707	-647.95276	797.65674	-18.56063	-641.21484	-691.98639	25.70888	488.67596	724.68408	33.98465	574.72675	7.98389	699.09515	-999.60583	
4394	43.930	-773.76489	-21.78333	-647.91479	798.71289	-17.21956	-641.08521	-690.55463	24.56617	489.27316	725.73889	32.78590	575.08862	9.03282	701.24628	-997.50299	
4395	43.940	-772.73529	-20.57583	-647.33069	799.93109	-15.89653	-640.72137	-689.59491	23.80777	489.38885	726.44952	31.81484	575.57690	10.34840	703.30432	-995.82556	
4396	43.950	-771.38092	-19.35254	-647.07178	801.11633	-14.48382	-640.28766	-688.45258	22.76398	489.87210	728.70038	30.72903	575.66309	11.37117	705.68103	-993.72296	
4397	43.960	-770.32098	-17.76441	-646.95660	802.18292	-13.07339	-640.15039	-687.41534	22.04402	490.17896	729.55414	29.61930	576.00110	12.57301	707.73547	-991.62091	
4398	43.970	-769.19800	-16.18641	-646.77850	803.43726	-11.64295	-639.91272	-686.21075	20.78758	490.54214	730.91040	28.32549	576.25256	13.59673	709.99792	-989.63855	
4399	43.980	-767.97528	-14.76663	-646.30591	804.34863	-10.07652	-639.59735	-685.07916	19.85929	490.83749	731.75323	27.06381	576.47662	14.86457	712.24011	-987.56396	
4400	43.990	-766.65179	-13.60730	-646.01886	805.83514	-8.75423	-639.02032	-683.96936	18.81136	491.25665	733.10229	25.97042	576.86279	15.95143	714.46661	-985.81665	
4401	44.000	-765.49585	-12.22361	-645.73230	806.56677	-7.11426	-638.95306	-682.79492	17.77782	491.97287	734.51544	25.04832	577.71143	16.91731	716.80377	-983.61938	
4402	44.010	-764.71155	-10.33828	-645.32562	807.75385	-5.65212	-638.63153	-681.65088	16.70574	492.22058	735.31030	23.66016	577.47577	18.17981	718.98547	-981.80530	
4403	44.020	-763.87701	-8.68391	-644.94995	808.98248	-4.34387	-638.23462	-680.60956	15.82406	492.44507	736.55310	22.44088	577.93079	19.20760	721.19879	-979.72308	
4404	44.030	-762.31042	-7.38158	-644.68158	809.90649	-2.49523	-637.89594	-679.51324	14.87192	492.82675	737.33374	21.11136	578.44049	20.17014	723.43958	-978.19202	
4405	44.040	-761.08551	-5.84864	-644.58539	811.26105	-0.98440	-637.62323	-678.34607	13.78022	493.30817	738.60333	19.91033	578.77026	21.33188	725.57300	-976.17194	
4406	44.050	-760.15417	-4.39587	-644.02802	812.35919	0.31256	-637.30450	-677.17523	12.89449	493.56281	739.54987	18.82482	578.97870	22.56453	728.00110	-974.19550	
4407	44.060	-758.99261	-2.98855	-643.57239	813.28290	1.94066	-636.95032	-676.11462	11.60114	493.90854	740.89563	17.55389	579.37042	23.53190	730.32056	-972.23260	
4408	44.070	-758.19971	-1.16106	-643.29840	814.34784	3.45892	-636.59607	-675.19952	10.73986	494.24786	741.03259	15.71836	580.07318	24.53348	732.55286	-970.54614	
4409	44.080	-756.66528	0.05295	-643.25452	815.72070	5.03892	-636.17841	-674.00159	9.48085	494.88120	742.45343	14.41897	581.07910	25.71189	734.81458	-968.56012	
4410	44.090	-755.87048	2.09115	-642.79883	816.42438	6.50936	-635.82208	-672.93549	8.73710	495.19492	743.61224	13.27486	581.34003	26.83823	737.27936	-966.24518	
4411	44.100	-754.80530	3.42640	-642.14191	817.69611	8.18451	-635.56976	-671.81305	7.42267	495.61972	744.72375	12.05385	581.75439	27.88233	739.59406	-964.23621	
4412	44.110	-753.92529	4.98545	-641.79688	818.69354	9.82496	-635.06958	-670.80737	6.38757	495.94437	746.30902	11.26877	581.12189	28.72225	741.87354	-962.25391	
4413	44.120	-752.96210	6.65873	-641.49976	819.68994	11.29178	-634.73041	-669.93390	5.43141	496.20511	747.21252	10.01681	581.55450	29.78440	744.15955	-960.04926	
4414	44.130	-751.79279	8.20871	-641.09576	820.58820	12.86206	-634.33435	-668.86389	3.99909	496.67847	748.31146	8.82109	581.91620	30.81077	746.57104	-957.66016	
4415	44.140	-750.85345	9.99121	-640.86707	821.77393	14.49718	-634.14862	-667.85547	3.12879	497.02649	749.20490	7.42278	582.21924	31.85668	749.00085	-955.32062	
4416	44.150	-749.81720	11.44083	-640.39783	822.67474	16.02632	-633.53314	-666.74170	1.97193	497.28656	749.83167	5.98029	582.96948	32.79141	751.29968	-952.98572	
4417	44.160	-748.91254	12.95075	-639.92047	823.54871	17.86202	-633.29309	-665.77356	1.02530	497.72589	751.11877	4.85770	583.32837	33.83299	753.66840	-950.65912	
4418	44.170	-747.94739	14.57330	-639.47687	824.80432	19.29188	-632.63184	-664.79889	-0.18798	498.33624	752.25946	3.76408	584.43164	34.71722	755.97015	-948.38568	
4419	44.180	-746.74829	16.05604	-639.07629	825.49127	20.81180	-632.43268	-663.85913	-1.34998	498.64511	753.42383	2.48723	584.72906	35.87365	758.10767	-946.38373	
4420	44.190	-746.01886	17.77579	-638.78210	826.45807	22.34831	-631.99066	-663.03003	-2.25768	498.88083	754.11298	1.10252	585.07043	36.75505	760.39081	-944.27661	
4421	44.200	-745.13995	19.35388	-638.57990	827.50073	24.18321	-631.60529	-662.04938	-3.41048	499.33331	755.02057	-0.05875	585.35504	37.58057	762.68610	-942.06885	
4422	44.210	-744.14532	20.88158	-638.01166	828.08789	25.99262	-631.36469	-661.11829	-4.23510	499.47897	756.27002	-1.18373	585.82904	38.41374	764.79529	-940.16754	
4423	44.220	-743.22052	22.33162	-637.49750	829.20294	26.90333	-630.73376	-660.04718	-5.45924	499.91226	757.09692	-2.53421	586.17688	38.94969	767.14105	-938.34662	
